<?xml version="1.0" encoding="utf-8"?>
<!-- Generator: Adobe Illustrator 28.0.0, SVG Export Plug-In . SVG Version: 6.00 Build 0)  -->
<svg version="1.1" id="Layer_3" xmlns="http://www.w3.org/2000/svg" xmlns:xlink="http://www.w3.org/1999/xlink" x="0px" y="0px"
	 viewBox="0 0 180 36" xml:space="preserve">
<g>
	<path fill="currentColor" d="M48.6,4.2C41,4.2,34.8,10.4,34.8,18S41,31.8,48.6,31.8c2.3,0,4.4-0.6,6.3-1.5v1.5h7.5V18C62.4,10.4,56.2,4.2,48.6,4.2z
		 M48.6,24.3c-3.5,0-6.3-2.8-6.3-6.3s2.8-6.3,6.3-6.3c3.5,0,6.3,2.8,6.3,6.3S52.1,24.3,48.6,24.3z"/>
	<path fill="currentColor" d="M90,18c0-7.6-6.2-13.8-13.8-13.8S62.4,10.4,62.4,18s6.2,13.8,13.8,13.8c2.3,0,4.4-0.6,6.3-1.5v1.5H90V19.4h-0.1
		C90,18.9,90,18.5,90,18z M76.2,24.3c-3.5,0-6.3-2.8-6.3-6.3s2.8-6.3,6.3-6.3s6.3,2.8,6.3,6.3S79.7,24.3,76.2,24.3z"/>
	<path fill="currentColor" d="M109.5,20.7h7.9c-1.3,6.3-6.8,11.1-13.5,11.1C96.2,31.8,90,25.6,90,18s6.2-13.8,13.8-13.8c6.7,0,12.3,4.8,13.5,11.1h-7.9
		c-1-2.1-3.2-3.6-5.7-3.6c-3.5,0-6.3,2.8-6.3,6.3s2.8,6.3,6.3,6.3C106.3,24.3,108.4,22.8,109.5,20.7z"/>
	<path fill="currentColor" d="M131.4,4.2c-7.6,0-13.8,6.2-13.8,13.8s6.2,13.8,13.8,13.8c7.6,0,13.8-6.2,13.8-13.8S139,4.2,131.4,4.2z M131.4,24.3
		c-3.5,0-6.3-2.8-6.3-6.3s2.8-6.3,6.3-6.3c3.5,0,6.3,2.8,6.3,6.3S134.9,24.3,131.4,24.3z"/>
	<path fill="currentColor" d="M172.8,18v13.8h-7.5V18c0-3.5-2.8-6.3-6.3-6.3s-6.3,2.8-6.3,6.3v13.8h-7.5V18c0-7.6,6.2-13.8,13.8-13.8
		S172.8,10.4,172.8,18L172.8,18z"/>
	<path fill="currentColor" d="M34,21l0.5,0.1c0,0,0,0.1,0,0.2c0,0.2-0.1,0.3-0.1,0.5c0,0.1-0.1,0.2-0.1,0.3c-0.1,0.2-0.1,0.4-0.2,0.6
		c-0.2,0.5-0.4,1-0.6,1.4c-2.3,4.5-6.9,7.6-12.3,7.6c-7.6,0-13.8-6.2-13.8-13.8S13.4,4.2,21,4.2c6.6,0,12.1,4.6,13.5,10.7l-7.3,1.7
		l-12.2,2.8c0.1,0.4,0.2,0.9,0.4,1.3l0,0c0.1,0.1,0.1,0.3,0.2,0.4l0,0c0.1,0.2,0.2,0.3,0.3,0.5c0,0,0,0,0,0c0.1,0.2,0.2,0.3,0.3,0.4
		c0,0,0,0,0,0c0.1,0.2,0.3,0.3,0.4,0.4c0.1,0.2,0.3,0.3,0.4,0.4c0.2,0.1,0.3,0.3,0.5,0.4c0.2,0.1,0.3,0.2,0.5,0.3
		c0.2,0.1,0.4,0.2,0.5,0.3c0.2,0.1,0.4,0.2,0.6,0.2c0.4,0.1,0.8,0.2,1.2,0.2c0.2,0,0.4,0,0.6,0s0.4,0,0.6,0c0.2,0,0.4-0.1,0.6-0.1
		c0.2,0,0.3-0.1,0.5-0.1c0.1,0,0.1,0,0.2-0.1c0.2-0.1,0.3-0.1,0.5-0.2c0.4-0.2,0.7-0.3,1.1-0.6c0.2-0.1,0.3-0.2,0.5-0.4
		c0.2-0.1,0.3-0.3,0.5-0.4c0,0,0,0,0,0c0.1-0.1,0.1-0.1,0.2-0.2c0.1-0.1,0.1-0.2,0.2-0.2c0.1-0.1,0.2-0.3,0.3-0.4
		c0,0,0.1-0.1,0.1-0.1c0.1-0.1,0.2-0.3,0.2-0.4c0.3-0.5,0.5-1,0.6-1.6L34,21L34,21z"/>
</g>
</svg>
